# xmcd
#
# Track frame offsets:
#	150
#	22100
#	45565
#	64437
#	87869
#	104254
#	122805
#	141238
#	157529
#	176578
#	195019
#	208748
#	226036
#	260815
#
# Disc length: 3865 seconds
# Revision: 0
# Processed by: cddbd v1.5.2PL0 Copyright (c) Steve Scherf et al.
# Submitted via: dBpowerAMP V12.0
#
DISCID=b90f170e
DTITLE=The Travelin' McCourys - The Travelin' Mccourys
DYEAR=2018
DGENRE=Bluegrass
TTITLE0=Let Her Go
TTITLE1=Lonesome, Ornery and Mean
TTITLE2=I Live on a Battlefield
TTITLE3=The Hardest Heart
TTITLE4=Borderline
TTITLE5=Crowhop
TTITLE6=The Shaker
TTITLE7=Natural to Be Gone
TTITLE8=Cumberland Blues
TTITLE9=Days I Wish I Had
TTITLE10=Southbound
TTITLE11=Freedom Blues
TTITLE12=Loser
TTITLE13=Travelin'
EXTD=
EXTT0=
EXTT1=
EXTT2=
EXTT3=
EXTT4=
EXTT5=
EXTT6=
EXTT7=
EXTT8=
EXTT9=
EXTT10=
EXTT11=
EXTT12=
EXTT13=
PLAYORDER=
